<svg id="Layer_1" data-name="Layer 1" xmlns="http://www.w3.org/2000/svg" xmlns:xlink="http://www.w3.org/1999/xlink" viewBox="0 0 458.9304 121.6836"><defs><style>.cls-1{fill:none;}.cls-2{fill:#ff8300;}.cls-3{fill:#ffb259;}.cls-4{clip-path:url(#clip-path);}.cls-5{fill:#443635;}</style><clipPath id="clip-path" transform="translate(-25.4903 -196.0712)"><rect class="cls-1" x="25.5794" y="196.0711" width="458.8413" height="121.6837"/></clipPath></defs><title>Citrine-informatics-logo</title><path class="cls-2" d="M458.2645,257.067a6.1324,6.1324,0,0,1-6.1253-6.1253V210.0442a6.1324,6.1324,0,0,1,6.1253-6.1253h26.1563v-2.4881h-.0083v-5.36H457.4433A12.1988,12.1988,0,0,0,445.28,208.2341v44.4288a12.1991,12.1991,0,0,0,12.1637,12.163h26.9692V259.54h.0083V257.067Z" transform="translate(-25.4903 -196.0712)"/><polygon class="cls-3" points="458.93 11.189 437.686 11.189 458.93 32.553 458.93 11.189 458.93 11.189"/><path class="cls-3" d="M455.48,231.825v19.1167a2.7872,2.7872,0,0,0,2.7842,2.7842h.0148l21.8463-21.9009Z" transform="translate(-25.4903 -196.0712)"/><path class="cls-3" d="M458.8028,207.26h-.5383a2.7872,2.7872,0,0,0-2.7842,2.7842v18.6786h24.6579L458.8028,207.26Z" transform="translate(-25.4903 -196.0712)"/><g class="cls-4"><polygon class="cls-3" points="458.93 35.848 437.172 57.655 458.93 57.655 458.93 35.848 458.93 35.848"/><path class="cls-5" d="M25.49,241.381c0-8.8806,4.6332-13.5137,13.9-13.5137H57.15c9.2663,0,13.8995,4.6331,13.8995,13.5137V244.47a1.0238,1.0238,0,0,1-1.1583,1.1578H64.872a1.0238,1.0238,0,0,1-1.1583-1.1578V241.381c0-4.2474-2.3165-6.564-6.5636-6.564H39.39c-4.2471,0-6.5636,2.3166-6.5636,6.564v28.57c0,4.2476,2.3165,6.5641,6.5636,6.5641H57.15c4.2471,0,6.5636-2.3165,6.5636-6.5641v-3.0888a1.0239,1.0239,0,0,1,1.1583-1.1579h5.0193a1.0238,1.0238,0,0,1,1.1583,1.1579v3.0888c0,8.8806-4.6332,13.5136-13.8995,13.5136H39.39c-9.2663,0-13.8995-4.633-13.8995-13.5136v-28.57Z" transform="translate(-25.4903 -196.0712)"/></g><path class="cls-5" d="M98.5486,229.7973a1.0238,1.0238,0,0,1,1.1583-1.1578h5.0191a1.0237,1.0237,0,0,1,1.1582,1.1578v51.7379a1.0235,1.0235,0,0,1-1.1582,1.1575H99.7069a1.0236,1.0236,0,0,1-1.1583-1.1575V229.7973Z" transform="translate(-25.4903 -196.0712)"/><path class="cls-5" d="M154.2341,281.5352a1.0235,1.0235,0,0,1-1.1582,1.1575h-5.0191a1.0235,1.0235,0,0,1-1.1582-1.1575v-45.946H129.91a1.0237,1.0237,0,0,1-1.1582-1.1587v-4.6332A1.0237,1.0237,0,0,1,129.91,228.64h41.3121a1.0238,1.0238,0,0,1,1.1583,1.1578v4.6332a1.0238,1.0238,0,0,1-1.1583,1.1587H154.2341v45.946Z" transform="translate(-25.4903 -196.0712)"/><path class="cls-5" d="M224.3516,257.2105c4.2476,0,6.5641-2.3166,6.5641-6.5632v-8.4948c0-4.2468-2.3165-6.5633-6.5641-6.5633H203.1171v21.6213ZM239.41,281.5352c.3854.7714,0,1.1575-.7722,1.1575h-5.4058a1.7839,1.7839,0,0,1-1.93-1.1575l-9.2667-17.375h-18.918v17.375a1.024,1.024,0,0,1-1.1589,1.1575h-5.0191a1.0235,1.0235,0,0,1-1.1582-1.1575V229.7973a1.0237,1.0237,0,0,1,1.1582-1.1578h27.4125c9.2667,0,13.9,4.6331,13.9,13.513v8.4948c0,11.5821-8.88,12.7407-8.88,12.7407L239.41,281.5352Z" transform="translate(-25.4903 -196.0712)"/><path class="cls-5" d="M268.667,229.7973a1.0237,1.0237,0,0,1,1.1582-1.1578h5.02a1.0232,1.0232,0,0,1,1.1575,1.1578v51.7379a1.023,1.023,0,0,1-1.1575,1.1575h-5.02a1.0235,1.0235,0,0,1-1.1582-1.1575V229.7973Z" transform="translate(-25.4903 -196.0712)"/><path class="cls-5" d="M344.0128,281.5352l-27.7985-41.6986h-.3861v41.6986a1.0235,1.0235,0,0,1-1.1582,1.1575h-5.0191a1.0235,1.0235,0,0,1-1.1582-1.1575V229.7973c0-.8489.3861-1.1578,1.1582-1.1578h5.7912a2.4094,2.4094,0,0,1,2.3165,1.1578l27.7986,41.6983h.3868V229.7973a1.0232,1.0232,0,0,1,1.1575-1.1578h5.02a1.0238,1.0238,0,0,1,1.1583,1.1578v51.7379a1.0236,1.0236,0,0,1-1.1583,1.1575h-5.7919a2.41,2.41,0,0,1-2.3165-1.1575Z" transform="translate(-25.4903 -196.0712)"/><path class="cls-5" d="M425.239,275.7433a1.0234,1.0234,0,0,1,1.1582,1.1582v4.6337c0,.7714-.3861,1.1575-1.081,1.1575H385.8573a1.0235,1.0235,0,0,1-1.1582-1.1575v-51.66c0-.849.386-1.2354,1.1582-1.2354h38.61a1.0237,1.0237,0,0,1,1.1582,1.1578v4.6332c0,.7729-.3861,1.1587-1.081,1.1587H392.0353v16.216h25.4821a1.0233,1.0233,0,0,1,1.1575,1.1579v4.6331c0,.773-.3853,1.1587-1.081,1.1587H392.0353v16.9884Z" transform="translate(-25.4903 -196.0712)"/><path class="cls-5" d="M240.1742,317.532h-.5568a.61.61,0,0,1-.5933-.5939V301.7926a.61.61,0,0,1,.5933-.594h.5568a.61.61,0,0,1,.594.594v15.1455a.61.61,0,0,1-.594.5939Z" transform="translate(-25.4903 -196.0712)"/><path class="cls-5" d="M261.223,317.532h-.78a.91.91,0,0,1-.735-.3608l-9.2511-13.14v12.907a.61.61,0,0,1-.5939.5939h-.5569a.61.61,0,0,1-.594-.5939V301.7926a.61.61,0,0,1,.594-.594h.78a.9071.9071,0,0,1,.7358.3616l9.25,13.1393V301.7926a.61.61,0,0,1,.594-.594h.5568a.61.61,0,0,1,.594.594v15.1455a.61.61,0,0,1-.594.5939Z" transform="translate(-25.4903 -196.0712)"/><path class="cls-5" d="M270.9122,317.532h-.5569a.61.61,0,0,1-.5939-.5939V301.7926a.61.61,0,0,1,.5939-.594H281.046a.61.61,0,0,1,.594.594v.5568a.61.61,0,0,1-.594.594h-9.54v6.1617h6.645a.61.61,0,0,1,.594.594v.5568a.61.61,0,0,1-.594.594h-6.645v6.0882a.61.61,0,0,1-.594.5939Z" transform="translate(-25.4903 -196.0712)"/><path class="cls-5" d="M291.1822,302.7206c-1.675,0-2.5252.8116-2.5252,2.4131v8.4633c0,1.6007.85,2.413,2.5252,2.413h5.0108c1.6743,0,2.5244-.8123,2.5244-2.413v-8.4633c0-1.6015-.85-2.4131-2.5244-2.4131Zm5.0108,15.0342h-5.0108a3.91,3.91,0,0,1-4.2692-4.1578v-8.4633a3.91,3.91,0,0,1,4.2692-4.1578h5.0108a3.9105,3.9105,0,0,1,4.2692,4.1578v8.4633a3.9105,3.9105,0,0,1-4.2692,4.1578Z" transform="translate(-25.4903 -196.0712)"/><path class="cls-5" d="M309.9286,309.9968H316.24c1.6743,0,2.5237-.8123,2.5237-2.413v-2.2274c0-1.6015-.8494-2.413-2.5237-2.413h-6.3109v7.0534Zm10.1071,7.1217.006.0111-.006-.0111Zm.2124.4135h-.6675a.6745.6745,0,0,1-.6385-.3786l-2.9238-5.4126h-6.09v5.1973a.61.61,0,0,1-.594.5939h-.5568a.61.61,0,0,1-.594-.5939V301.7926a.61.61,0,0,1,.594-.594H316.24a3.91,3.91,0,0,1,4.2692,4.1578v2.2274a3.7119,3.7119,0,0,1-2.7011,3.9343l2.8778,5.2418a.5075.5075,0,0,1-.4373.7721Z" transform="translate(-25.4903 -196.0712)"/><path class="cls-5" d="M345.0166,317.532H344.46a.61.61,0,0,1-.5932-.5939V304.7417L337.8905,317.1a.89.89,0,0,1-.78.4321h-.3342a.8826.8826,0,0,1-.7639-.4024L330.02,304.74v12.198a.61.61,0,0,1-.594.5939h-.5569a.61.61,0,0,1-.5932-.5939V301.7926a.61.61,0,0,1,.5932-.594h.78a.8353.8353,0,0,1,.7781.4277l6.5166,13.4616,6.5151-13.4572a.8354.8354,0,0,1,.78-.4321h.7788a.61.61,0,0,1,.5948.594v15.1455a.61.61,0,0,1-.5948.5939Z" transform="translate(-25.4903 -196.0712)"/><path class="cls-5" d="M355.7185,311.2211h5.9278l-2.9632-7.5516-2.9646,7.5516Zm9.479,6.3109h-.5568a.6766.6766,0,0,1-.6794-.4558l-1.5807-4.11h-7.3964l-1.5792,4.1051a.6773.6773,0,0,1-.6808.46h-.5569a.59.59,0,0,1-.5242-.24.52.52,0,0,1-.043-.4915l6.126-15.1477a.6818.6818,0,0,1,.6786-.4544h.5561a.6667.6667,0,0,1,.6653.4269l6.1387,15.1737a.5223.5223,0,0,1-.0431.493.59.59,0,0,1-.5242.24Z" transform="translate(-25.4903 -196.0712)"/><path class="cls-5" d="M374.018,317.532h-.5569a.61.61,0,0,1-.5939-.5939V302.9434h-4.9745a.61.61,0,0,1-.594-.594v-.5568a.61.61,0,0,1,.594-.594h11.6938a.61.61,0,0,1,.5939.594v.5568a.61.61,0,0,1-.5939.594H374.612v13.9947a.61.61,0,0,1-.594.5939Z" transform="translate(-25.4903 -196.0712)"/><path class="cls-5" d="M387.0482,317.532h-.5568a.61.61,0,0,1-.594-.5939V301.7926a.61.61,0,0,1,.594-.594h.5568a.61.61,0,0,1,.594.594v15.1455a.61.61,0,0,1-.594.5939Z" transform="translate(-25.4903 -196.0712)"/><path class="cls-5" d="M404.4211,317.7548h-4.7882a3.91,3.91,0,0,1-4.2691-4.1578v-8.4633a3.91,3.91,0,0,1,4.2691-4.1578h4.7882a3.91,3.91,0,0,1,4.2692,4.1578v.78a.61.61,0,0,1-.594.5933h-.5569a.6094.6094,0,0,1-.5932-.5933v-.78c0-1.6015-.85-2.4131-2.5251-2.4131h-4.7882c-1.6749,0-2.5243.8116-2.5243,2.4131v8.4633c0,1.6007.8494,2.413,2.5243,2.413h4.7882c1.675,0,2.5251-.8123,2.5251-2.413v-.78a.6094.6094,0,0,1,.5932-.5932h.5569a.61.61,0,0,1,.594.5932v.78a3.91,3.91,0,0,1-4.2692,4.1578Z" transform="translate(-25.4903 -196.0712)"/><path class="cls-5" d="M423.6873,317.7548h-3.898a3.91,3.91,0,0,1-4.2684-4.1578v-.78a.61.61,0,0,1,.594-.5932h.5568a.61.61,0,0,1,.594.5932v.78c0,1.6007.8486,2.413,2.5236,2.413h3.898c1.675,0,2.5243-.8123,2.5243-2.413v-.891a1.508,1.508,0,0,0-1.1909-1.54l-6.6851-2.2282a3.187,3.187,0,0,1-2.3692-3.1369v-.6674a3.91,3.91,0,0,1,4.2692-4.1578h3.4517a3.91,3.91,0,0,1,4.2691,4.1578v.78a.6094.6094,0,0,1-.5932.5933h-.5568a.61.61,0,0,1-.5948-.5933v-.78c0-1.6015-.8493-2.4131-2.5243-2.4131h-3.4517c-1.675,0-2.5244.8116-2.5244,2.4131v.6674a1.5087,1.5087,0,0,0,1.1909,1.5406l6.6851,2.2274a3.187,3.187,0,0,1,2.3692,3.1369v.8687a3.92,3.92,0,0,1-4.2691,4.18Z" transform="translate(-25.4903 -196.0712)"/></svg>